<svg width="52" height="62" viewBox="0 0 52 62" fill="none" xmlns="http://www.w3.org/2000/svg">
<path d="M22.8601 0L51.0641 28.0899V43.1698H37.9022V33.5109L17.4173 13.1086H13.1619V43.1698H0V0H22.8601ZM37.9022 14.9813V0H51.0641V14.9813H37.9022Z" fill="#212326"/>
<path d="M11.1292 48.4203V61.8687H9.48448L1.83659 51.3096H1.69953V61.8687H0V48.4203H1.64471L9.32001 59.0056H9.45707V48.4203H11.1292Z" fill="black"/>
<path d="M14.9861 61.8687V51.7824H16.6034V61.8687H14.9861ZM15.8085 50.1013C15.4932 50.1013 15.2214 49.9984 14.993 49.7927C14.7691 49.5869 14.6572 49.3396 14.6572 49.0507C14.6572 48.7617 14.7691 48.5144 14.993 48.3086C15.2214 48.1029 15.4932 48 15.8085 48C16.1237 48 16.3932 48.1029 16.6171 48.3086C16.8455 48.5144 16.9598 48.7617 16.9598 49.0507C16.9598 49.3396 16.8455 49.5869 16.6171 49.7927C16.3932 49.9984 16.1237 50.1013 15.8085 50.1013Z" fill="black"/>
<path d="M24.8188 51.7824V53.0957H19.3638V51.7824H24.8188ZM20.9537 49.3659H22.571V58.9794C22.571 59.4171 22.6373 59.7455 22.7698 59.9644C22.9068 60.1789 23.0804 60.3233 23.2906 60.3977C23.5053 60.4678 23.7314 60.5028 23.969 60.5028C24.1472 60.5028 24.2934 60.4941 24.4076 60.4765C24.5218 60.4547 24.6132 60.4371 24.6817 60.424L25.0107 61.8161C24.901 61.8555 24.748 61.8949 24.5515 61.9343C24.3551 61.9781 24.1061 62 23.8045 62C23.3477 62 22.9 61.9059 22.4614 61.7176C22.0273 61.5294 21.6664 61.2427 21.3786 60.8574C21.0953 60.4722 20.9537 59.9862 20.9537 59.3996V49.3659Z" fill="black"/>
<path d="M27.927 61.8687V51.7824H29.5443V61.8687H27.927ZM28.7494 50.1013C28.4341 50.1013 28.1623 49.9984 27.9339 49.7927C27.71 49.5869 27.5981 49.3396 27.5981 49.0507C27.5981 48.7617 27.71 48.5144 27.9339 48.3086C28.1623 48.1029 28.4341 48 28.7494 48C29.0646 48 29.3341 48.1029 29.558 48.3086C29.7864 48.5144 29.9007 48.7617 29.9007 49.0507C29.9007 49.3396 29.7864 49.5869 29.558 49.7927C29.3341 49.9984 29.0646 50.1013 28.7494 50.1013Z" fill="black"/>
<path d="M35.4571 48.4203L38.8493 58.6379H38.9795L42.3786 48.4203H45.668L40.8298 61.8687H37.0059L32.1608 48.4203H35.4571Z" fill="black"/>
<path d="M51 48.4203V61.8687H48.0327V48.4203H51Z" fill="black"/>
</svg>
