<svg width="90" height="40" viewBox="0 0 90 40" fill="none" xmlns="http://www.w3.org/2000/svg">
<path d="M39.52 12.25C39.88 12.25 40 12.38 40 12.73V20.65H44.07C44.42 20.65 44.55 20.78 44.55 21.13V21.83C44.55 22.18 44.42 22.31 44.07 22.31H38.71C38.36 22.31 38.22 22.18 38.22 21.83V12.73C38.22 12.38 38.36 12.25 38.71 12.25H39.52Z" fill="#394149"/>
<path d="M48.1 15.74C48.1 13.43 49.56 12.04 52.1 12.04C54.64 12.04 56.1 13.43 56.1 15.74V18.82C56.1 21.13 54.63 22.52 52.1 22.52C49.57 22.52 48.1 21.13 48.1 18.82V15.74ZM54.42 15.74C54.42 14.44 53.61 13.74 52.15 13.74C50.69 13.74 49.89 14.45 49.89 15.74V18.84C49.89 20.15 50.69 20.84 52.15 20.84C53.61 20.84 54.42 20.12 54.42 18.84V15.74Z" fill="#394149"/>
<path d="M68.01 16.8C68.4 16.8 68.49 16.93 68.49 17.28V19.18C68.5006 19.6275 68.4109 20.0718 68.2275 20.4801C68.044 20.8885 67.7716 21.2506 67.43 21.54C66.5817 22.2155 65.5121 22.5506 64.43 22.48C61.84 22.48 60.43 21.09 60.43 18.78V15.68C60.43 13.4 61.89 12 64.43 12C66.43 12 67.73 12.79 68.28 14.37C68.3108 14.4294 68.3273 14.4951 68.3282 14.5619C68.3291 14.6288 68.3144 14.695 68.2853 14.7551C68.2562 14.8153 68.2134 14.8679 68.1604 14.9087C68.1074 14.9494 68.0456 14.9773 67.98 14.99L67.2 15.26C66.86 15.38 66.72 15.31 66.6 14.96C66.4343 14.5329 66.131 14.1731 65.738 13.9377C65.345 13.7023 64.8848 13.6045 64.43 13.66C62.96 13.66 62.16 14.37 62.16 15.66V18.84C62.16 20.15 62.97 20.84 64.43 20.84C65.89 20.84 66.79 20.17 66.79 19.19V18.45H64.62C64.26 18.45 64.13 18.31 64.13 17.96V17.28C64.13 16.93 64.26 16.8 64.62 16.8H68.01Z" fill="#394149"/>
<path d="M72.62 15.74C72.62 13.43 74.08 12.04 76.62 12.04C79.16 12.04 80.62 13.43 80.62 15.74V18.82C80.62 21.13 79.15 22.52 76.62 22.52C74.09 22.52 72.62 21.13 72.62 18.82V15.74ZM78.93 15.74C78.93 14.44 78.12 13.74 76.67 13.74C75.22 13.74 74.4 14.45 74.4 15.74V18.84C74.4 20.15 75.21 20.84 76.67 20.84C78.13 20.84 78.93 20.12 78.93 18.84V15.74Z" fill="#394149"/>
<path d="M38 27.2306C38 27.0557 38.0686 27 38.2843 27H38.7353C38.951 27 39 27.0557 39 27.2306V34.7694C39 34.9443 39 35 38.7353 35H38.2843C38.0686 35 38 34.9443 38 34.7694V27.2306Z" fill="#394149"/>
<path d="M46.3687 27C47.0666 27 47.7358 27.2631 48.2293 27.7314C48.7228 28.1996 49 28.8348 49 29.497C49 30.1593 48.7228 30.7944 48.2293 31.2627C47.7358 31.731 47.0666 31.994 46.3687 31.994H43.8547V34.7694C43.8547 34.9443 43.8128 35 43.6369 35H43.243C43.067 35 43 34.9443 43 34.7694V27.2306C43 27.0557 43.067 27 43.243 27H46.3687ZM46.2933 31.2068C46.5332 31.2068 46.7708 31.1619 46.9924 31.0748C47.214 30.9877 47.4154 30.86 47.5851 30.699C47.7547 30.5381 47.8892 30.3469 47.9811 30.1366C48.0729 29.9263 48.1201 29.7008 48.1201 29.4732C48.1201 29.2455 48.0729 29.02 47.9811 28.8097C47.8892 28.5994 47.7547 28.4083 47.5851 28.2473C47.4154 28.0864 47.214 27.9586 46.9924 27.8715C46.7708 27.7844 46.5332 27.7396 46.2933 27.7396H43.7793V31.2068H46.2933Z" fill="#394149"/>
<path d="M55.9793 27.0186C56.5786 26.9458 57.1833 27.0877 57.7035 27.4232C58.2234 27.7588 58.6317 28.27 58.8669 28.8809C58.929 29.0176 58.867 29.1287 58.7428 29.197L58.4012 29.3679C58.2615 29.4277 58.2071 29.4191 58.1217 29.2568C57.9458 28.8034 57.6435 28.4232 57.2583 28.1714C56.8732 27.9195 56.4253 27.809 55.9793 27.8558C54.6674 27.8558 53.9533 28.4282 53.9533 29.4533C53.9457 29.7666 54.0412 30.0724 54.2225 30.3142C54.4037 30.5559 54.6582 30.7175 54.9391 30.7689C55.3566 30.9187 55.7895 31.0106 56.2277 31.0423C56.7581 31.0734 57.2814 31.1914 57.7802 31.3925C58.1629 31.5257 58.492 31.7996 58.7125 32.1683C58.9329 32.537 59.0315 32.978 58.9912 33.4172C58.9912 35.0147 57.9354 35.98 55.9948 35.98C55.3583 36.0601 54.716 35.8978 54.1751 35.5201C53.6341 35.1424 53.227 34.572 53.0218 33.9041C53.008 33.8737 53.0007 33.8403 53 33.8063C52.9994 33.7723 53.0057 33.7386 53.0183 33.7076C53.0309 33.6766 53.0496 33.649 53.073 33.6269C53.0964 33.6047 53.1239 33.5885 53.1537 33.5795L53.4953 33.4428C53.5221 33.4307 53.5511 33.4249 53.5801 33.4257C53.6092 33.4266 53.6377 33.4341 53.664 33.4478C53.6903 33.4614 53.7137 33.4809 53.7327 33.5051C53.7518 33.5293 53.7661 33.5574 53.7747 33.588C53.9484 34.0706 54.2572 34.4798 54.6563 34.7563C55.0555 35.0328 55.5243 35.1622 55.9948 35.1257C57.4619 35.1257 58.1839 34.5619 58.1839 33.4172C58.1978 33.1163 58.114 32.8198 57.9474 32.5804C57.7811 32.3411 57.5431 32.1744 57.2756 32.1101C56.874 31.9783 56.4598 31.898 56.0414 31.8709L55.203 31.7513C54.9407 31.6901 54.6816 31.613 54.4268 31.5207C54.1751 31.437 53.9405 31.3007 53.7359 31.1192C53.53 30.914 53.3677 30.6614 53.2603 30.3794C53.153 30.0974 53.1034 29.793 53.1149 29.4875C53.1693 27.9925 54.1862 27.0186 55.9793 27.0186Z" fill="#394149"/>
<path d="M63.811 32.8189C63.8441 33.4386 64.089 34.0208 64.4953 34.4464C64.9016 34.8721 65.4386 35.109 65.9961 35.109C66.5535 35.109 67.0906 34.8721 67.4969 34.4464C67.9032 34.0208 68.1472 33.4386 68.1811 32.8189V27.2541C68.1811 27.0613 68.2362 27 68.4094 27H68.7717C68.9449 27 69 27.0613 69 27.2541V32.8101C69 34.7994 67.9449 36 66 36C64.0551 36 63 34.7994 63 32.8101V27.2541C63 27.0613 63.0551 27 63.2205 27H63.5906C63.7559 27 63.811 27.0613 63.811 27.2541V32.8189Z" fill="#394149"/>
<path d="M80.7456 27.0014C80.9386 27.0014 81 27.057 81 27.2319V34.7694C81 34.9443 80.9386 35 80.7456 35H80.3772C80.193 35 80.1316 34.9443 80.1316 34.7694V30.1817C80.1316 29.5143 80.1816 28.8475 80.2807 28.186H80.2281C79.9544 28.7909 79.6342 29.378 79.2719 29.9432L77.386 32.9566C77.3632 33.0089 77.3228 33.0536 77.2711 33.0849C77.2193 33.116 77.1588 33.1323 77.0965 33.1315H76.8509C76.7877 33.1318 76.7263 33.1154 76.6728 33.0844C76.6202 33.0533 76.5781 33.0089 76.5526 32.9566L74.6404 29.9114C74.3009 29.3543 74.0079 28.7749 73.7632 28.1781H73.7105C73.8 28.8456 73.8474 29.5173 73.8509 30.1897V34.7694C73.8509 34.9443 73.7895 35 73.5965 35H73.2544C73.0614 35 73 34.9443 73 34.7694V27.2319C73 27.057 73.0614 27.0014 73.2544 27.0014H73.5702C73.6421 26.9953 73.7149 27.0095 73.7772 27.0423C73.8404 27.0751 73.8904 27.1247 73.9211 27.1842L76.9912 32.1297L80.0439 27.2319C80.1403 27.065 80.193 27.0411 80.386 27.0411L80.7456 27.0014Z" fill="#394149"/>
<path d="M21.73 20.79V28.02C21.73 28.2972 21.6199 28.563 21.4239 28.7589C21.228 28.9549 20.9622 29.065 20.685 29.065C20.4079 29.065 20.1421 28.9549 19.9461 28.7589C19.7501 28.563 19.64 28.2972 19.64 28.02V20.8C19.931 21.0125 20.2798 21.1311 20.64 21.14C21.0326 21.1512 21.4173 21.0277 21.73 20.79ZM30.63 18.7C30.3648 18.7 30.1104 18.8054 29.9229 18.9929C29.7354 19.1804 29.63 19.4348 29.63 19.7V20.96C29.63 21.2372 29.7401 21.503 29.9361 21.6989C30.132 21.8949 30.3978 22.005 30.675 22.005C30.9522 22.005 31.218 21.8949 31.4139 21.6989C31.6099 21.503 31.72 21.2372 31.72 20.96V19.75C31.7278 19.6066 31.7046 19.4632 31.652 19.3296C31.5994 19.196 31.5187 19.0752 31.4152 18.9756C31.3118 18.876 31.1881 18.7998 31.0527 18.7522C30.9172 18.7047 30.773 18.6869 30.63 18.7ZM17.37 23.53C17.0102 23.5192 16.6618 23.4008 16.37 23.19V30.44C16.37 30.7185 16.4806 30.9856 16.6775 31.1825C16.8744 31.3794 17.1415 31.49 17.42 31.49C17.6985 31.49 17.9656 31.3794 18.1625 31.1825C18.3594 30.9856 18.47 30.7185 18.47 30.44V23.24C18.1435 23.4511 17.7582 23.5527 17.37 23.53ZM27.37 16.53C27.2345 16.5232 27.0991 16.5441 26.9719 16.5913C26.8448 16.6385 26.7286 16.7111 26.6303 16.8046C26.5321 16.8982 26.454 17.0107 26.4006 17.1354C26.3473 17.2601 26.3198 17.3944 26.32 17.53V23.1C26.32 23.3785 26.4306 23.6456 26.6275 23.8425C26.8245 24.0394 27.0915 24.15 27.37 24.15C27.6485 24.15 27.9156 24.0394 28.1125 23.8425C28.3094 23.6456 28.42 23.3785 28.42 23.1V17.6C28.428 17.4557 28.4046 17.3114 28.3514 17.177C28.2982 17.0426 28.2166 16.9213 28.112 16.8215C28.0074 16.7217 27.8825 16.6457 27.7458 16.5989C27.6091 16.552 27.4638 16.5353 27.32 16.55L27.37 16.53ZM24.05 18.67C23.6733 18.6674 23.3067 18.5487 23 18.33V25.6C23 25.8785 23.1106 26.1456 23.3075 26.3425C23.5045 26.5394 23.7715 26.65 24.05 26.65C24.3285 26.65 24.5955 26.5394 24.7925 26.3425C24.9894 26.1456 25.1 25.8785 25.1 25.6V18.34C24.7828 18.5763 24.3955 18.6995 24 18.69L24.05 18.67ZM15.1 24.24V3.93C15.0974 3.68243 14.9972 3.44591 14.8212 3.27178C14.6452 3.09765 14.4076 2.99999 14.16 3H13.94C13.6924 2.99999 13.4548 3.09765 13.2788 3.27178C13.1028 3.44591 13.0026 3.68243 13 3.93V24.24C13 24.4893 13.099 24.7284 13.2753 24.9047C13.4516 25.081 13.6907 25.18 13.94 25.18H14.16C14.4093 25.18 14.6484 25.081 14.8247 24.9047C15.001 24.7284 15.1 24.4893 15.1 24.24ZM17.48 22.76H17.26C17.0107 22.76 16.7716 22.661 16.5953 22.4847C16.419 22.3084 16.32 22.0693 16.32 21.82V6.35C16.3226 6.10244 16.4228 5.8659 16.5988 5.69178C16.7748 5.51765 17.0124 5.41999 17.26 5.42H17.48C17.7276 5.41999 17.9652 5.51765 18.1412 5.69178C18.3172 5.8659 18.4174 6.10244 18.42 6.35V21.84C18.42 22.0893 18.321 22.3284 18.1447 22.5047C17.9684 22.681 17.7293 22.78 17.48 22.78V22.76ZM20.79 20.38H20.56C20.3134 20.38 20.0768 20.282 19.9024 20.1076C19.728 19.9332 19.63 19.6967 19.63 19.45V8.75C19.6287 8.62703 19.6518 8.50502 19.6979 8.39103C19.744 8.27704 19.8123 8.17334 19.8988 8.08592C19.9853 7.9985 20.0883 7.9291 20.2018 7.88174C20.3153 7.83438 20.437 7.80999 20.56 7.81H20.79C21.0376 7.81264 21.2741 7.91283 21.4482 8.08883C21.6224 8.26483 21.72 8.50242 21.72 8.75V19.45C21.72 19.6967 21.622 19.9332 21.4476 20.1076C21.2732 20.282 21.0367 20.38 20.79 20.38ZM24.1 17.93H23.89C23.6424 17.93 23.4048 17.8324 23.2288 17.6582C23.0528 17.4841 22.9526 17.2476 22.95 17V11.24C22.9418 11.1116 22.96 10.9829 23.0036 10.8618C23.0471 10.7408 23.1151 10.6299 23.2032 10.5362C23.2913 10.4424 23.3977 10.3678 23.5159 10.3168C23.634 10.2659 23.7613 10.2397 23.89 10.24H24.11C24.3593 10.24 24.5984 10.339 24.7747 10.5153C24.951 10.6916 25.05 10.9307 25.05 11.18V16.98C25.0513 17.1043 25.028 17.2276 24.9813 17.3428C24.9347 17.458 24.8657 17.5628 24.7782 17.6512C24.6908 17.7395 24.5868 17.8096 24.472 17.8575C24.3573 17.9054 24.2343 17.93 24.11 17.93H24.1ZM27.42 15.78H27.2C26.9507 15.78 26.7116 15.681 26.5353 15.5047C26.359 15.3284 26.26 15.0893 26.26 14.84V13.35C26.2626 13.1024 26.3628 12.8659 26.5388 12.6918C26.7148 12.5176 26.9524 12.42 27.2 12.42H27.42C27.6676 12.42 27.9052 12.5176 28.0812 12.6918C28.2572 12.8659 28.3574 13.1024 28.36 13.35V14.84C28.36 15.0876 28.2624 15.3252 28.0882 15.5012C27.9141 15.6772 27.6776 15.7774 27.43 15.78H27.42Z" fill="#394149"/>
</svg>
